<?xml version="1.0" standalone="no"?>
<!DOCTYPE svg PUBLIC "-//W3C//DTD SVG 20010904//EN"
 "http://www.w3.org/TR/2001/REC-SVG-20010904/DTD/svg10.dtd">
<svg version="1.0" xmlns="http://www.w3.org/2000/svg"
 width="385.000000pt" height="385.000000pt" viewBox="0 0 385.000000 385.000000"
 preserveAspectRatio="xMidYMid meet">
<metadata>
Created by potrace 1.11, written by Peter Selinger 2001-2013
</metadata>
<g transform="translate(0.000000,385.000000) scale(0.100000,-0.100000)"
fill="#000000" stroke="none">
<path d="M1233 3840 c-13 -5 -23 -7 -23 -3 0 3 -6 1 -12 -4 -7 -6 -41 -13 -76
-17 -89 -8 -114 -16 -108 -32 4 -10 -2 -14 -19 -14 -13 0 -27 -5 -31 -11 -4
-8 1 -9 17 -4 24 7 24 7 3 -8 -25 -19 -88 -35 -64 -17 24 18 -30 2 -60 -18
-14 -10 -37 -23 -51 -31 -28 -14 -74 -54 -80 -69 -2 -4 -30 -25 -62 -47 -32
-21 -63 -50 -68 -64 -10 -24 -65 -81 -78 -79 -3 0 -15 0 -26 -1 -16 -1 -17 -3
-6 -10 12 -8 12 -12 2 -25 -8 -9 -9 -16 -3 -16 6 0 12 4 14 9 2 4 14 12 28 16
19 6 13 -2 -22 -31 -26 -21 -43 -41 -38 -44 5 -3 4 -15 -3 -27 -38 -68 -95
-182 -102 -203 -4 -14 -20 -51 -36 -83 -29 -60 -29 -63 -30 -139 0 -26 -4 -50
-9 -53 -6 -3 -10 -11 -10 -16 0 -6 5 -7 10 -4 13 8 13 -31 -1 -56 -13 -26 -18
-158 -5 -162 5 -2 3 -17 -5 -35 -8 -20 -19 -30 -27 -27 -8 3 -17 5 -22 5 -8 0
-36 68 -33 80 1 3 5 18 9 34 5 21 4 27 -5 22 -6 -4 -11 -16 -11 -27 0 -10 -4
-19 -9 -19 -5 0 -12 -9 -16 -19 -4 -12 -12 -18 -21 -14 -9 3 -14 -1 -14 -14 0
-30 -10 -34 -32 -13 -13 12 -19 26 -15 39 3 12 1 23 -4 27 -10 6 -4 157 7 176
4 7 4 10 -1 6 -4 -4 -14 -3 -22 3 -10 9 -13 3 -13 -34 0 -25 -4 -49 -10 -52
-6 -4 -5 -13 2 -24 14 -23 4 -51 -22 -58 -20 -5 -20 -13 -20 -331 1 -180 5
-321 9 -313 7 10 10 11 16 1 5 -8 1 -18 -8 -25 -15 -11 -17 -36 -17 -189 0
-174 0 -176 20 -164 11 7 20 20 21 28 1 16 1 15 15 -29 4 -11 8 -10 24 4 18
16 20 16 20 2 0 -9 -5 -19 -10 -22 -15 -9 -12 -25 5 -25 11 0 10 -8 -8 -37
-17 -30 -23 -34 -25 -19 -2 10 1 22 8 26 9 5 9 13 3 25 -8 14 -13 10 -28 -26
-13 -31 -20 -39 -23 -26 -2 10 1 24 8 32 8 10 8 15 -1 20 -8 6 -7 10 2 16 10
6 8 9 -8 9 -16 0 -23 -6 -23 -20 0 -11 5 -20 11 -20 8 0 8 -4 1 -13 -8 -9 -11
-247 -12 -775 l0 -762 600 0 600 0 0 33 c0 17 5 48 11 67 6 19 10 49 10 66 -1
60 -67 176 -210 364 -106 140 -164 250 -205 390 -27 91 -30 96 -67 113 -51 24
-77 70 -88 155 -10 81 -48 202 -62 202 -6 0 -7 9 -4 20 4 12 0 31 -8 44 -8 12
-13 33 -10 47 2 13 -3 33 -11 44 -14 19 -15 17 -16 -27 0 -27 4 -48 10 -48 5
0 6 -8 3 -17 -4 -10 -8 -12 -11 -5 -6 20 -29 -10 -25 -33 4 -18 3 -19 -9 -3
-13 15 -15 15 -25 0 -9 -14 -10 -11 -4 13 7 26 6 31 -10 32 -15 1 -17 -2 -10
-14 10 -18 3 -53 -10 -53 -5 0 -9 9 -9 21 0 11 -5 30 -11 41 -7 13 -7 18 0 14
17 -11 34 35 36 101 1 35 5 66 8 70 4 3 7 -1 7 -11 0 -10 5 -14 11 -10 7 4 9
-16 6 -69 -3 -60 -2 -74 9 -70 9 3 13 23 12 61 -1 32 2 67 6 79 9 27 -2 52
-14 33 -5 -8 -8 -4 -7 11 1 13 -2 34 -7 47 -14 42 12 22 34 -25 42 -96 65
-136 75 -134 6 1 9 12 8 24 -1 12 -7 74 -13 137 -6 63 -18 141 -26 172 -17 71
-18 125 -1 131 10 4 10 7 -1 18 -6 7 -12 28 -12 45 0 18 -4 35 -9 38 -5 3 -11
15 -14 26 -3 11 -2 18 3 15 4 -3 4 12 -2 33 -5 20 -10 44 -12 52 -1 8 -5 22
-9 30 -3 8 -8 58 -10 110 -3 52 -8 103 -12 112 -4 11 0 20 14 28 18 9 21 8 22
-12 0 -22 1 -22 8 -3 6 16 10 10 15 -28 8 -53 26 -64 26 -14 0 30 28 118 42
132 4 4 -2 -28 -13 -70 -11 -42 -18 -82 -15 -89 2 -6 7 4 11 21 4 18 14 38 21
44 8 6 14 25 14 41 0 26 31 97 91 210 11 20 39 56 62 80 33 34 42 39 45 25 4
-21 21 -22 28 -2 4 8 12 15 20 15 8 0 14 4 14 9 0 7 57 13 140 13 47 0 173
-13 183 -19 6 -3 20 -7 31 -9 71 -6 161 -25 180 -37 12 -8 38 -17 57 -20 19
-2 44 -9 54 -14 11 -6 36 -17 55 -25 46 -20 75 -33 132 -57 26 -12 52 -21 57
-21 6 0 11 -7 11 -15 0 -8 9 -15 20 -15 11 0 29 -9 40 -20 11 -11 29 -20 40
-20 11 0 20 -4 20 -10 0 -5 9 -10 20 -10 11 0 20 -4 20 -10 0 -5 7 -10 15 -10
9 0 18 -7 21 -15 4 -8 16 -15 29 -15 13 0 26 -8 29 -17 5 -11 10 -13 17 -6 14
14 98 -7 124 -30 78 -69 83 -75 87 -113 4 -33 -3 -80 -29 -181 -3 -13 -10 -20
-15 -17 -6 4 -7 -2 -3 -16 6 -19 4 -21 -13 -16 -28 9 -38 -12 -16 -30 17 -13
16 -13 -11 -3 -16 5 -35 15 -42 21 -8 6 -17 8 -21 4 -4 -4 4 -16 17 -27 13
-10 19 -19 14 -19 -6 0 -20 9 -33 20 -13 11 -27 20 -32 20 -14 0 -9 -17 7 -24
8 -3 15 -11 15 -18 0 -10 -2 -10 -9 0 -4 7 -12 12 -17 11 -5 -2 -28 1 -51 5
-49 9 -79 -2 -43 -16 l24 -9 -25 -12 c-28 -14 -88 -16 -108 -3 -10 6 -12 5 -7
-2 5 -8 -1 -12 -16 -13 -86 -1 -148 -14 -148 -30 0 -5 -6 -9 -13 -9 -7 0 -20
-9 -30 -20 -19 -22 -33 -25 -42 -10 -7 12 -26 14 -24 3 3 -20 -2 -34 -11 -28
-13 8 -13 3 0 -30 6 -15 7 -31 4 -36 -3 -6 -7 -34 -8 -62 -2 -29 -7 -106 -11
-173 -6 -88 -5 -123 4 -128 6 -4 11 -14 11 -21 0 -17 60 -118 72 -123 22 -10
39 -78 32 -132 -12 -97 -49 -145 -128 -164 -38 -9 -26 -19 58 -46 66 -22 93
-22 176 -5 14 3 19 3 13 -1 -25 -11 -13 -23 13 -14 14 6 36 7 49 4 18 -4 25
-1 30 16 5 15 12 19 26 15 15 -5 19 -1 19 20 0 15 4 24 10 20 6 -4 8 -11 5
-16 -4 -5 -2 -9 4 -9 6 0 13 11 17 25 3 14 12 25 20 25 8 0 14 3 14 8 0 11
-58 34 -70 27 -16 -10 -12 15 5 31 28 29 18 75 -30 137 -25 31 -50 57 -55 57
-18 0 -93 59 -104 83 -7 13 -26 26 -48 31 -42 11 -46 23 -42 138 3 86 8 100
29 91 17 -6 20 8 5 23 -5 5 -7 26 -3 47 4 29 16 46 52 75 62 50 93 71 58 38
-15 -14 -25 -26 -21 -26 4 0 -13 -14 -37 -32 -28 -20 -39 -33 -30 -36 8 -3 20
3 27 13 8 11 19 15 31 11 9 -4 14 -4 10 0 -8 9 51 74 67 74 6 0 19 -14 28 -30
11 -19 25 -30 40 -30 17 0 19 3 10 12 -22 22 -12 33 31 34 31 1 36 -1 21 -6
-21 -8 -39 -38 -29 -48 7 -8 87 18 105 33 8 7 28 17 44 21 25 6 28 4 23 -10
-4 -9 -2 -16 4 -16 6 0 7 -6 3 -12 -4 -7 2 -5 13 5 24 21 36 12 22 -15 -16
-29 -4 -33 27 -9 15 11 35 21 46 21 14 0 18 5 14 18 -5 14 5 21 46 36 28 10
67 33 86 52 19 18 43 36 53 39 11 4 19 11 19 16 0 17 29 22 42 7 22 -23 19
-38 -7 -38 -15 0 -29 -8 -36 -21 -8 -15 -8 -19 0 -15 6 4 18 0 26 -8 13 -13
14 -19 3 -36 -9 -14 -10 -23 -2 -28 17 -12 27 -44 30 -106 2 -33 8 -81 14
-108 13 -64 13 -99 0 -78 -7 11 -10 7 -10 -18 0 -30 -2 -33 -22 -27 -17 6 -20
4 -15 -9 4 -9 2 -16 -3 -16 -6 0 -10 -16 -10 -35 0 -19 -4 -35 -9 -35 -5 0
-12 -21 -16 -47 -4 -27 -12 -57 -18 -68 -6 -11 -11 -28 -12 -37 -1 -10 -9 -26
-17 -35 -25 -28 -27 -83 -4 -83 8 0 16 -5 18 -11 3 -9 10 -9 26 0 19 10 23 9
31 -12 5 -13 7 -54 5 -93 l-4 -69 20 55 c10 30 19 65 19 77 1 12 6 34 13 48 9
19 16 24 32 19 12 -4 23 -8 25 -10 8 -7 6 -205 -2 -259 -7 -50 -57 -167 -76
-179 -6 -4 -8 -13 -4 -21 7 -21 -14 -19 -26 2 -10 17 -10 17 -11 1 0 -10 -4
-18 -8 -18 -16 0 -21 12 -13 34 5 11 11 57 15 101 6 71 5 77 -6 55 -8 -14 -22
-52 -32 -85 -10 -33 -22 -69 -27 -81 -6 -11 -12 -31 -13 -45 -5 -38 -25 -82
-47 -102 -10 -10 -19 -27 -19 -38 0 -20 -14 -57 -49 -129 -21 -44 -57 -56 -47
-16 5 22 3 26 -16 26 -17 0 -19 -3 -9 -9 10 -7 11 -13 1 -31 -6 -12 -9 -24 -6
-27 3 -3 -3 -17 -14 -31 -11 -13 -17 -28 -14 -33 3 -5 0 -9 -6 -9 -6 0 -9 -4
-6 -9 9 -14 -63 -129 -96 -152 -16 -12 -27 -24 -24 -27 3 -3 -20 -18 -52 -33
-32 -15 -64 -35 -71 -43 -8 -10 -21 -14 -32 -11 -11 4 -19 2 -19 -4 0 -5 -30
-12 -67 -14 -38 -2 102 -4 310 -5 288 -2 377 1 377 10 0 9 3 9 12 0 9 -9 174
-12 680 -12 l668 0 0 711 0 710 -22 -6 -23 -6 23 17 c21 16 22 21 22 200 0
181 0 183 -22 187 l-23 4 23 2 c21 1 22 5 22 92 0 57 -4 88 -10 84 -5 -3 -10
-1 -10 4 0 6 4 11 10 11 6 0 10 114 10 315 -1 241 -4 315 -13 315 -9 0 -9 2 0
8 8 5 12 45 12 121 1 100 -1 112 -14 101 -13 -11 -14 -10 -9 4 3 9 10 16 15
16 5 0 9 48 9 106 0 97 -1 106 -17 99 -10 -4 -26 -10 -35 -12 -10 -3 -18 -9
-18 -14 0 -5 -9 -9 -20 -9 -11 0 -20 7 -20 15 0 10 10 15 30 15 27 0 30 3 30
30 0 20 5 30 15 30 8 0 15 -5 15 -12 0 -24 15 5 16 32 1 24 -1 28 -15 21 -9
-5 -27 -21 -40 -35 -26 -27 -46 -33 -56 -16 -3 6 1 7 9 4 9 -3 16 -1 16 5 0 6
7 11 15 11 18 0 20 16 3 26 -6 4 -14 2 -16 -4 -2 -7 -8 -12 -14 -12 -18 0 -55
-35 -50 -48 2 -6 -1 -12 -7 -12 -6 0 -12 6 -12 13 -7 57 -1 67 45 67 l28 0
-23 19 c-22 18 -22 19 -3 29 20 10 25 12 47 12 8 0 8 3 -2 9 -12 8 -12 13 2
35 23 34 21 39 -10 33 -68 -14 -89 -21 -99 -35 -8 -11 -13 -12 -18 -3 -4 6
-12 9 -17 5 -5 -3 -6 -10 -3 -16 5 -8 1 -9 -10 -5 -10 4 -22 7 -27 7 -25 0 5
19 48 29 35 9 43 15 33 22 -8 5 -25 9 -37 9 -13 0 -23 5 -23 10 0 6 -11 8 -25
4 -18 -4 -32 -1 -45 11 -19 17 -20 17 -21 -1 -1 -10 -1 -23 1 -29 1 -5 -6 -15
-16 -22 -12 -9 -15 -20 -10 -47 4 -20 13 -36 20 -36 8 0 19 -7 26 -15 10 -12
10 -15 -4 -15 -21 0 -20 -9 1 -32 17 -19 16 -19 -10 -13 -25 7 -27 5 -27 -25
0 -21 -4 -30 -12 -27 -7 2 -12 11 -10 20 2 11 -2 15 -12 11 -8 -3 -17 -1 -21
5 -3 6 -16 11 -28 11 -20 0 -20 0 -1 -15 15 -12 16 -16 6 -23 -8 -5 -13 -13
-12 -18 2 -4 -5 -13 -14 -19 -12 -7 -26 -4 -56 13 -21 12 -44 22 -50 22 -17 0
13 -40 30 -40 8 0 23 -7 33 -14 15 -12 13 -14 -25 -19 -24 -3 -45 -3 -48 1 -7
10 -60 15 -60 6 0 -5 12 -17 26 -29 30 -24 25 -62 -6 -45 -25 14 -37 13 -22
-2 18 -18 15 -30 -5 -24 -10 2 -34 7 -53 11 -28 5 -31 4 -17 -5 9 -6 17 -16
17 -21 0 -6 -4 -7 -10 -4 -5 3 -10 3 -10 -2 0 -16 15 -30 38 -37 12 -4 22 -12
22 -17 0 -12 38 -50 47 -46 9 3 27 -72 19 -80 -8 -8 -36 17 -36 31 0 25 -41
57 -63 50 -32 -10 -33 -12 -9 -37 28 -30 28 -37 -3 -37 -29 0 -31 -11 -10 -44
15 -22 14 -24 -10 -30 -26 -7 -34 -33 -14 -53 7 -7 6 -12 -5 -16 -21 -8 -21
-1 4 408 11 182 24 411 30 510 5 99 12 213 16 253 l6 72 -90 0 c-89 0 -90 0
-100 -27 -6 -16 -13 -48 -16 -73 -8 -62 -16 -104 -22 -109 -8 -9 -22 21 -17
36 3 7 0 13 -7 13 -9 0 -11 21 -8 80 l5 80 -59 0 c-44 0 -58 -4 -58 -14 0 -24
-36 -555 -39 -568 0 -4 -10 0 -21 9 -13 11 -18 24 -14 39 3 12 -4 42 -15 67
-12 25 -21 50 -21 54 0 18 -41 88 -66 114 -15 15 -52 40 -83 54 -31 15 -64 34
-74 43 -9 8 -25 20 -35 26 -10 6 -40 26 -67 44 -27 17 -59 32 -72 32 -21 0
-29 17 -24 52 0 4 -7 7 -17 6 -9 0 -45 6 -80 12 -49 10 -65 10 -77 0 -9 -7
-19 -9 -23 -5 -4 4 -1 10 6 12 6 3 10 9 6 14 -7 12 -64 12 -64 -1 0 -5 8 -6
18 -3 15 6 15 5 3 -10 -13 -16 -15 -16 -31 3 -20 23 -70 27 -70 6 0 -8 -7 -17
-15 -20 -20 -7 -115 13 -115 25 0 12 -548 11 -577 -1z m1092 -120 c3 -5 1 -10
-4 -10 -6 0 -11 5 -11 10 0 6 2 10 4 10 3 0 8 -4 11 -10z m1212 -392 c-3 -8
-6 -5 -6 6 -1 11 2 17 5 13 3 -3 4 -12 1 -19z m205 -40 c-7 -7 -12 -8 -12 -2
0 6 3 14 7 17 3 4 9 5 12 2 2 -3 -1 -11 -7 -17z m-132 -52 c0 -3 -4 -8 -10
-11 -5 -3 -10 -1 -10 4 0 6 5 11 10 11 6 0 10 -2 10 -4z m48 -28 c-6 -18 -28
-21 -28 -4 0 9 7 16 16 16 9 0 14 -5 12 -12z m-54 -33 c-4 -8 -8 -15 -10 -15
-2 0 -4 7 -4 15 0 8 4 15 10 15 5 0 7 -7 4 -15z m-46 -69 c23 4 24 4 9 -6 -21
-13 -60 -4 -50 13 5 8 8 8 11 -1 2 -7 14 -10 30 -6z m162 -41 c10 -13 9 -15
-8 -15 -15 0 -20 5 -16 15 4 8 7 15 9 15 1 0 8 -7 15 -15z m-296 -38 c-7 -18
-24 -23 -24 -8 0 22 13 42 22 33 5 -5 6 -16 2 -25z m253 1 c-3 -8 -6 -5 -6 6
-1 11 2 17 5 13 3 -3 4 -12 1 -19z m-163 -23 c-4 -8 -11 -15 -16 -15 -6 0 -5
6 2 15 7 8 14 15 16 15 2 0 1 -7 -2 -15z m66 0 c0 -8 -7 -15 -15 -15 -13 0
-14 3 -3 15 16 18 18 18 18 0z m-245 -15 c3 -5 -3 -10 -14 -10 -12 0 -21 5
-21 10 0 6 6 10 14 10 8 0 18 -4 21 -10z m-2835 -19 c0 -5 -13 -12 -30 -16
-16 -4 -30 -11 -30 -15 0 -5 -7 -7 -15 -4 -8 4 -15 1 -15 -6 0 -6 -4 -9 -9 -5
-5 3 -12 1 -16 -5 -8 -12 -35 -13 -35 -1 0 4 30 20 68 34 77 29 82 30 82 18z
m2978 -9 c2 -7 -2 -10 -12 -6 -9 3 -16 11 -16 16 0 13 23 5 28 -10z m-165 -17
c4 -8 2 -17 -2 -20 -5 -2 -11 4 -14 15 -6 23 8 27 16 5z m457 -9 c-26 -13 -44
-11 -35 5 4 5 18 9 33 9 l27 0 -25 -14z m-420 -17 c0 -6 -4 -7 -10 -4 -5 3
-10 11 -10 16 0 6 5 7 10 4 6 -3 10 -11 10 -16z m-155 1 c3 -5 2 -10 -4 -10
-5 0 -13 5 -16 10 -3 6 -2 10 4 10 5 0 13 -4 16 -10z m85 -14 c0 -14 -4 -28
-10 -31 -6 -4 -10 7 -10 24 0 17 5 31 10 31 6 0 10 -11 10 -24z m507 10 c-3
-7 -1 -19 4 -25 5 -6 2 -5 -7 3 -9 8 -13 19 -10 25 10 16 19 14 13 -3z m-3342
-36 c-3 -5 -12 -10 -18 -10 -7 0 -6 4 3 10 19 12 23 12 15 0z m-69 -23 c-1
-13 -10 -34 -20 -48 l-17 -24 7 30 c7 32 22 65 29 65 2 0 3 -10 1 -23z m3391
-1 c-7 -14 -13 -23 -15 -21 -7 6 9 45 18 45 4 0 3 -11 -3 -24z m-497 -6 c0 -5
-2 -10 -4 -10 -3 0 -8 5 -11 10 -3 6 -1 10 4 10 6 0 11 -4 11 -10z m270 -20
c0 -5 -4 -10 -10 -10 -5 0 -10 5 -10 10 0 6 5 10 10 10 6 0 10 -4 10 -10z
m201 -33 c-10 -9 -11 -8 -5 6 3 10 9 15 12 12 3 -3 0 -11 -7 -18z m-541 -17
c6 -11 9 -20 7 -20 -2 0 -12 9 -22 20 -10 11 -13 20 -7 20 6 0 16 -9 22 -20z
m600 0 c-24 -18 -60 -33 -60 -24 0 7 64 44 75 44 6 0 -1 -9 -15 -20z m20 -40
c0 -5 -4 -10 -9 -10 -6 0 -13 5 -16 10 -3 6 1 10 9 10 9 0 16 -4 16 -10z m-85
-31 c-11 -6 -35 -27 -52 -46 -28 -30 -33 -32 -33 -15 0 11 6 22 13 25 6 2 9 8
5 12 -4 4 -14 2 -23 -5 -9 -7 -18 -11 -20 -8 -10 10 26 31 63 39 56 10 70 10
47 -2z m-275 -49 c-33 -26 -48 -26 -25 0 10 11 25 20 34 20 12 0 9 -6 -9 -20z
m-103 -15 c0 -17 -13 -20 -21 -6 -4 5 0 12 6 14 7 3 13 6 14 6 0 1 1 -6 1 -14z
m178 5 c3 -5 2 -10 -4 -10 -5 0 -13 5 -16 10 -3 6 -2 10 4 10 5 0 13 -4 16
-10z m-3002 -25 c-3 -9 -8 -14 -10 -11 -3 3 -2 9 2 15 9 16 15 13 8 -4z m3077
10 c0 -12 -24 -55 -32 -55 -10 0 -10 3 2 34 8 22 30 37 30 21z m-440 -25 c0
-5 -4 -10 -10 -10 -5 0 -10 5 -10 10 0 6 5 10 10 10 6 0 10 -4 10 -10z m590 0
c0 -5 -2 -10 -4 -10 -3 0 -8 5 -11 10 -3 6 -1 10 4 10 6 0 11 -4 11 -10z
m-573 -42 c-3 -8 -6 -5 -6 6 -1 11 2 17 5 13 3 -3 4 -12 1 -19z m-57 -8 c0 -5
-2 -10 -4 -10 -3 0 -8 5 -11 10 -3 6 -1 10 4 10 6 0 11 -4 11 -10z m370 -14
c0 -16 -18 -31 -27 -22 -8 8 5 36 17 36 5 0 10 -6 10 -14z m197 -8 c-3 -8 -6
-5 -6 6 -1 11 2 17 5 13 3 -3 4 -12 1 -19z m-487 -8 c20 -12 9 -21 -18 -13
-12 3 -19 9 -16 14 7 11 15 11 34 -1z m249 -40 c0 -10 -3 -8 -9 5 -12 27 -12
43 0 25 5 -8 9 -22 9 -30z m171 10 c0 -5 -7 -7 -15 -4 -8 4 -15 8 -15 10 0 2
7 4 15 4 8 0 15 -4 15 -10z m-3203 -22 c-3 -8 -6 -5 -6 6 -1 11 2 17 5 13 3
-3 4 -12 1 -19z m26 -18 c-3 -11 -7 -20 -9 -20 -2 0 -4 9 -4 20 0 11 4 20 9
20 5 0 7 -9 4 -20z m3378 5 c0 -13 -41 -19 -41 -7 0 11 20 22 33 18 5 -1 8 -6
8 -11z m-687 -50 c3 -8 3 -15 0 -15 -3 0 -12 7 -20 15 -13 13 -13 15 -1 15 8
0 17 -7 21 -15z m321 -5 c-3 -5 -11 -10 -16 -10 -6 0 -7 5 -4 10 3 6 11 10 16
10 6 0 7 -4 4 -10z m295 0 c0 -5 -4 -10 -9 -10 -5 0 -16 -3 -25 -6 -9 -3 -16
-1 -16 4 0 9 16 17 43 21 4 0 7 -3 7 -9z m-3640 -10 c0 -5 -5 -10 -11 -10 -5
0 -7 5 -4 10 3 6 8 10 11 10 2 0 4 -4 4 -10z m3000 -33 c0 -4 -7 -2 -15 7 -8
8 -15 21 -15 28 1 14 30 -20 30 -35z m590 9 c0 -11 -19 -15 -25 -6 -3 5 1 10
9 10 9 0 16 -2 16 -4z m-599 -45 c6 -14 5 -20 -1 -16 -6 3 -10 12 -10 20 0 7
-5 16 -10 18 -6 3 -5 4 1 3 7 -1 16 -12 20 -25z m437 -11 c-7 -11 -17 -20 -23
-20 -6 0 -16 -9 -23 -21 -18 -28 -25 -18 -12 16 6 17 15 25 24 22 8 -3 20 1
26 9 18 21 22 17 8 -6z m-3430 -13 c-2 -19 -7 -23 -25 -19 -27 5 -30 17 -5 31
26 16 32 13 30 -12z m2221 -70 c-8 -23 -15 -33 -20 -26 -4 7 -5 19 -2 26 3 8
7 24 8 36 5 50 6 51 16 27 7 -18 7 -36 -2 -63z m-2159 29 c0 -3 -4 -8 -10 -11
-5 -3 -10 -1 -10 4 0 6 5 11 10 11 6 0 10 -2 10 -4z m-19 -149 c-16 -16 -14
-37 4 -37 8 0 15 4 15 9 0 5 11 11 25 13 21 5 25 2 20 -13 -5 -15 -1 -19 15
-19 17 0 20 -5 17 -27 -4 -28 -15 -32 -48 -19 -11 5 -19 1 -23 -9 -9 -24 3
-38 20 -24 10 8 17 7 30 -6 9 -9 23 -14 30 -11 8 3 14 0 14 -7 0 -7 3 -22 6
-34 8 -28 -22 -35 -56 -14 -22 15 -24 15 -17 -1 3 -10 0 -24 -9 -32 -10 -10
-11 -17 -3 -22 6 -3 16 0 21 7 6 9 7 2 2 -21 -8 -42 -21 -52 -46 -37 -20 13
-23 23 -8 32 15 9 12 25 -4 25 -8 0 -16 5 -18 12 -2 6 -26 11 -56 12 -29 0
-52 5 -52 10 0 4 9 6 20 3 13 -3 20 0 20 9 0 8 11 20 25 26 29 13 34 33 6 25
-46 -12 -30 95 19 135 16 12 30 32 31 43 1 18 2 18 6 1 3 -10 0 -23 -6 -29z
m34 3 c3 -5 1 -10 -4 -10 -6 0 -11 5 -11 10 0 6 2 10 4 10 3 0 8 -4 11 -10z
m2215 -16 c0 -8 -4 -12 -10 -9 -5 3 -10 13 -10 21 0 8 5 12 10 9 6 -3 10 -13
10 -21z m-2380 2 c0 -8 -5 -18 -10 -21 -6 -3 -10 3 -10 14 0 12 5 21 10 21 6
0 10 -6 10 -14z m46 -61 c-10 -19 -23 -29 -40 -30 -35 -1 -33 11 4 30 17 9 28
20 25 25 -4 6 -1 10 4 10 6 0 12 8 12 18 1 13 3 12 6 -4 2 -11 -3 -33 -11 -49z
m3339 55 c3 -5 -1 -10 -10 -10 -9 0 -13 5 -10 10 3 6 8 10 10 10 2 0 7 -4 10
-10z m-817 -22 c-2 -15 -11 -24 -25 -26 -26 -4 -28 1 -13 29 15 27 42 25 38
-3z m527 -18 c3 -5 2 -10 -4 -10 -5 0 -13 5 -16 10 -3 6 -2 10 4 10 5 0 13 -4
16 -10z m531 -5 c-8 -8 -20 -15 -27 -15 -7 0 -4 6 7 15 25 19 40 19 20 0z
m-1491 -15 c3 -5 1 -10 -4 -10 -6 0 -11 5 -11 10 0 6 2 10 4 10 3 0 8 -4 11
-10z m1345 -20 c0 -5 -5 -10 -11 -10 -5 0 -7 5 -4 10 3 6 8 10 11 10 2 0 4 -4
4 -10z m-3185 -10 c3 -6 -1 -7 -9 -4 -18 7 -21 14 -7 14 6 0 13 -4 16 -10z
m1849 -1 c-4 -7 -27 -9 -63 -5 l-56 6 40 -14 40 -13 -85 -7 c-47 -4 -93 -10
-102 -12 -13 -4 -16 -1 -12 10 3 9 21 18 40 22 19 3 34 10 34 15 0 5 39 9 86
9 59 0 83 -3 78 -11z m1306 -9 c0 -5 -5 -10 -11 -10 -5 0 -7 5 -4 10 3 6 8 10
11 10 2 0 4 -4 4 -10z m-3112 -32 c9 -9 12 -9 12 2 0 9 3 11 10 4 10 -10 12
-40 8 -111 -4 -55 -18 -67 -18 -15 0 23 -4 42 -9 42 -13 0 -19 -45 -9 -64 6
-10 3 -24 -7 -39 -8 -13 -13 -32 -9 -41 3 -9 0 -24 -7 -33 -8 -9 -20 -28 -27
-42 -12 -26 -12 -26 -7 7 2 17 0 32 -5 32 -6 0 -10 31 -10 70 0 58 3 70 16 70
10 0 14 5 10 15 -3 9 0 18 8 21 11 4 11 10 2 30 -6 13 -14 24 -18 24 -5 0 -8
7 -8 15 0 9 6 12 15 9 8 -4 15 -1 15 5 0 15 23 14 38 -1z m3157 -85 c-13 -12
-14 -18 -5 -21 6 -2 17 1 23 7 6 6 18 11 27 11 9 0 3 -8 -15 -20 -37 -25 -52
-25 -52 -2 0 18 27 55 35 48 2 -3 -4 -13 -13 -23z m315 17 c0 -5 -5 -10 -11
-10 -5 0 -7 5 -4 10 3 6 8 10 11 10 2 0 4 -4 4 -10z m-3730 -40 c0 -5 -5 -10
-11 -10 -5 0 -7 5 -4 10 3 6 8 10 11 10 2 0 4 -4 4 -10z m25 -41 c-4 -5 -13
-9 -21 -9 -12 0 -12 2 -2 14 14 15 32 11 23 -5z m-81 -14 c-4 -8 -8 -15 -10
-15 -2 0 -4 7 -4 15 0 8 4 15 10 15 5 0 7 -7 4 -15z m211 5 c-3 -5 -11 -10
-16 -10 -6 0 -7 5 -4 10 3 6 11 10 16 10 6 0 7 -4 4 -10z m147 -18 c-15 -5
-16 -62 -1 -62 8 0 7 -5 -2 -16 -8 -10 -15 -12 -17 -5 -2 6 -8 9 -13 6 -14 -9
2 57 20 82 9 12 18 16 20 10 2 -6 -1 -13 -7 -15z m-232 -2 c0 -5 -2 -10 -4
-10 -3 0 -8 5 -11 10 -3 6 -1 10 4 10 6 0 11 -4 11 -10z m15 -30 c-16 -31 -45
-41 -45 -16 0 12 29 34 58 45 1 1 -4 -12 -13 -29z m255 7 c0 -16 -6 -23 -20
-23 -24 0 -24 1 -3 26 22 25 23 25 23 -3z m-177 -12 c4 -8 2 -17 -3 -20 -6 -4
-10 3 -10 14 0 25 6 27 13 6z m3167 11 c0 -2 -8 -10 -17 -17 -16 -13 -17 -12
-4 4 13 16 21 21 21 13z m-3246 -70 c-6 -16 -24 -23 -24 -8 0 10 22 33 27 28
2 -2 1 -11 -3 -20z m3086 -1 c14 -19 14 -19 -2 -6 -10 7 -18 18 -18 24 0 6 1
8 3 6 1 -2 9 -13 17 -24z m-3139 -28 c-10 -9 -11 -8 -5 6 3 10 9 15 12 12 3
-3 0 -11 -7 -18z m62 -19 c-4 -7 -8 -16 -9 -20 -1 -5 -2 -11 -3 -14 0 -4 -8
-1 -17 7 -13 11 -14 9 -8 -17 8 -35 14 -43 14 -21 0 24 17 21 23 -3 8 -31 7
-35 -9 -32 -13 3 -20 -29 -16 -79 1 -10 -8 -19 -20 -23 -25 -6 -38 2 -20 13 6
4 15 21 18 39 6 31 -2 39 -38 33 -21 -3 14 89 42 111 26 21 55 25 43 6z m2907
2 c0 -5 -5 -10 -11 -10 -5 0 -7 5 -4 10 3 6 8 10 11 10 2 0 4 -4 4 -10z
m-2830 -10 c0 -5 -2 -10 -4 -10 -3 0 -8 5 -11 10 -3 6 -1 10 4 10 6 0 11 -4
11 -10z m34 -52 c-3 -4 9 -6 25 -4 22 2 31 -1 31 -11 0 -11 5 -10 26 4 39 25
60 26 60 2 0 -12 -5 -18 -13 -15 -7 3 -13 -2 -13 -10 0 -12 -7 -15 -31 -12
-24 4 -33 0 -39 -16 -9 -21 -9 -21 -9 1 -1 36 -18 35 -25 -2 -9 -47 -22 -52
-19 -7 2 29 1 33 -6 17 -5 -11 -10 -30 -10 -42 -1 -12 -8 -28 -16 -37 -8 -8
-15 -19 -15 -25 0 -6 -5 -11 -10 -11 -12 0 -3 49 11 65 14 15 10 52 -6 59 -14
5 -14 8 1 31 9 14 13 25 9 25 -5 0 0 9 10 20 l19 21 12 -23 c7 -12 10 -26 8
-30z m3471 23 c3 -5 1 -12 -5 -16 -5 -3 -10 1 -10 9 0 18 6 21 15 7z m-193
-27 c-12 -8 -28 -12 -34 -8 -9 6 -5 10 12 15 41 11 46 10 22 -7z m-459 -1 c-7
-2 -21 -2 -30 0 -10 3 -4 5 12 5 17 0 24 -2 18 -5z m347 -24 c0 -4 -11 -9 -25
-11 -15 -3 -25 -1 -25 6 0 6 11 11 25 11 14 0 25 -3 25 -6z m-3230 -29 c0 -5
-4 -10 -10 -10 -5 0 -10 5 -10 10 0 6 5 10 10 10 6 0 10 -4 10 -10z m-144 -88
c-12 -11 -16 6 -9 39 l8 34 3 -33 c2 -19 1 -36 -2 -40z m291 18 c0 -22 -4 -37
-8 -34 -15 9 -10 74 6 74 1 0 2 -18 2 -40z m-324 10 c-3 -12 -8 -19 -11 -16
-5 6 5 36 12 36 2 0 2 -9 -1 -20z m273 -27 c-11 -11 -17 4 -9 23 7 18 8 18 11
1 2 -10 1 -21 -2 -24z m3364 17 c0 -5 -4 -10 -10 -10 -5 0 -10 5 -10 10 0 6 5
10 10 10 6 0 10 -4 10 -10z m-3504 -48 c-17 -16 -18 -16 -5 5 7 12 15 20 18
17 3 -2 -3 -12 -13 -22z m3389 8 c3 -5 1 -10 -4 -10 -6 0 -11 5 -11 10 0 6 2
10 4 10 3 0 8 -4 11 -10z m45 -15 c-7 -9 -15 -13 -17 -11 -7 7 7 26 19 26 6 0
6 -6 -2 -15z m-1804 -13 c16 -14 20 -26 17 -57 -7 -62 -10 -69 -27 -53 -13 14
-66 111 -66 123 0 12 57 3 76 -13z m-1520 -19 c-22 -20 -30 -23 -36 -12 -10
15 -3 32 11 24 5 -4 9 -2 9 2 0 5 10 9 22 10 21 2 20 1 -6 -24z m-206 -4 c0
-5 -15 -9 -32 -9 l-33 1 25 13 c25 14 40 13 40 -5z m-80 1 c0 -5 -5 -10 -11
-10 -5 0 -7 5 -4 10 3 6 8 10 11 10 2 0 4 -4 4 -10z m563 -5 c2 -13 -93 -19
-105 -7 -5 5 9 9 33 10 23 1 45 4 48 7 7 8 22 1 24 -10z m2142 -1233 c-3 -3
-11 0 -18 7 -9 10 -8 11 6 5 10 -3 15 -9 12 -12z"/>
<path d="M127 2083 c-4 -3 -7 -11 -7 -17 0 -6 5 -5 12 2 6 6 9 14 7 17 -3 3
-9 2 -12 -2z"/>
<path d="M127 2013 c-4 -3 -7 -11 -7 -17 0 -6 5 -5 12 2 6 6 9 14 7 17 -3 3
-9 2 -12 -2z"/>
<path d="M150 2011 c0 -6 5 -13 10 -16 6 -3 10 1 10 9 0 9 -4 16 -10 16 -5 0
-10 -4 -10 -9z"/>
<path d="M315 1769 c-4 -6 -5 -12 -2 -15 2 -3 7 2 10 11 7 17 1 20 -8 4z"/>
<path d="M1840 3840 c0 -5 9 -10 19 -10 11 0 23 5 26 10 4 6 -5 10 -19 10 -14
0 -26 -4 -26 -10z"/>
<path d="M3508 3431 c18 -17 37 -31 43 -31 18 0 -5 22 -43 43 l-33 19 33 -31z"/>
<path d="M3582 3435 c0 -16 2 -22 5 -12 2 9 2 23 0 30 -3 6 -5 -1 -5 -18z"/>
<path d="M3642 3389 c2 -8 14 -18 26 -24 12 -5 22 -16 22 -23 0 -9 8 -10 28
-5 15 4 35 7 44 7 9 0 15 2 13 4 -8 8 20 29 32 25 7 -3 13 0 13 6 0 17 -51 13
-71 -5 -17 -15 -21 -15 -56 1 -21 10 -42 20 -47 23 -5 3 -7 -1 -4 -9z"/>
<path d="M3350 3301 c0 -5 7 -12 16 -15 14 -5 15 -4 4 9 -14 17 -20 19 -20 6z"/>
<path d="M3410 3263 c0 -4 10 -17 22 -30 12 -13 19 -26 15 -29 -3 -3 -14 4
-24 15 -9 12 -29 21 -43 21 -24 -1 -24 -1 -5 -12 11 -6 32 -24 46 -40 27 -29
59 -38 59 -15 0 7 -6 19 -12 26 -11 11 -8 12 15 7 41 -10 33 9 -17 38 -47 27
-56 30 -56 19z"/>
<path d="M3380 3190 c0 -5 5 -10 11 -10 5 0 7 5 4 10 -3 6 -8 10 -11 10 -2 0
-4 -4 -4 -10z"/>
<path d="M789 2809 c-14 -19 -29 -47 -33 -63 -6 -26 -5 -28 8 -17 9 8 16 19
16 26 0 7 9 24 21 39 11 14 19 31 17 37 -2 6 -15 -4 -29 -22z"/>
<path d="M15 2670 c3 -5 8 -10 11 -10 2 0 4 5 4 10 0 6 -5 10 -11 10 -5 0 -7
-4 -4 -10z"/>
<path d="M675 2580 c-3 -5 -1 -10 4 -10 6 0 11 5 11 10 0 6 -2 10 -4 10 -3 0
-8 -4 -11 -10z"/>
<path d="M243 2553 c-15 -5 -17 -23 -4 -23 5 0 11 7 15 15 3 8 4 15 3 14 -1 0
-8 -3 -14 -6z"/>
<path d="M2060 2135 c0 -8 4 -15 10 -15 5 0 7 7 4 15 -4 8 -8 15 -10 15 -2 0
-4 -7 -4 -15z"/>
<path d="M1178 1901 c-1 -5 -16 -10 -33 -12 -16 -2 -37 -9 -45 -15 -8 -7 -34
-15 -58 -19 -23 -4 -40 -11 -37 -15 3 -5 -5 -12 -17 -15 -13 -4 -33 -16 -45
-27 -12 -11 -26 -17 -32 -13 -6 3 -11 1 -11 -6 0 -7 -3 -9 -7 -6 -3 4 -12 2
-20 -4 -7 -6 -13 -8 -13 -3 0 5 -5 2 -10 -6 -8 -13 -10 -12 -10 3 0 9 -5 17
-11 17 -6 0 -9 -14 -7 -32 3 -31 6 -33 41 -34 20 0 37 3 37 7 0 9 67 17 80 9
5 -3 -17 -19 -48 -35 -31 -17 -59 -34 -61 -38 -1 -4 -12 -17 -24 -28 -18 -16
-19 -19 -4 -20 41 -3 54 -1 80 9 15 7 39 15 53 18 14 4 30 17 35 31 9 24 10
24 32 9 33 -24 45 -29 63 -22 10 4 13 13 9 27 -6 18 -4 20 15 14 17 -5 23 -2
27 14 5 20 23 28 36 15 7 -7 -9 -25 -38 -42 -11 -6 -14 -12 -7 -12 19 0 62 30
62 44 0 23 21 34 50 26 23 -7 29 -5 33 12 3 11 0 21 -9 25 -9 3 -13 16 -12 32
2 17 -2 26 -12 27 -32 3 -34 5 -20 14 8 5 23 7 33 4 11 -4 17 0 17 11 0 9 -4
14 -9 11 -4 -3 -16 3 -26 14 -18 20 -71 28 -77 11z m57 -21 c3 -5 2 -10 -4
-10 -5 0 -13 5 -16 10 -3 6 -2 10 4 10 5 0 13 -4 16 -10z m-88 -16 c-3 -3 -12
-4 -19 -1 -8 3 -5 6 6 6 11 1 17 -2 13 -5z"/>
<path d="M2140 1800 c0 -13 11 -13 30 0 12 8 11 10 -7 10 -13 0 -23 -4 -23
-10z"/>
<path d="M767 1758 c-4 -14 -11 -19 -21 -15 -9 4 -16 2 -16 -3 0 -11 30 -13
54 -4 20 8 21 30 2 37 -9 4 -16 -2 -19 -15z"/>
<path d="M1186 1137 c-15 -19 -26 -39 -26 -46 0 -6 -9 -21 -20 -33 -25 -27
-26 -42 -2 -27 21 13 92 112 92 128 0 21 -19 11 -44 -22z"/>
<path d="M1396 1112 c-3 -5 1 -15 9 -22 18 -15 68 -4 62 13 -4 15 -63 22 -71
9z"/>
<path d="M2054 1018 c-3 -5 -10 -6 -15 -3 -5 4 -9 1 -9 -5 0 -6 -5 -8 -11 -4
-6 3 -25 -1 -42 -9 -60 -29 -127 -57 -137 -57 -5 0 -10 -4 -10 -10 0 -5 -5
-10 -10 -10 -11 0 -17 -4 -65 -46 -29 -25 -29 -25 -5 -19 14 4 37 8 51 10 14
1 36 12 48 24 14 14 29 20 42 16 11 -4 25 0 35 9 23 24 53 20 64 -9 5 -14 13
-25 17 -25 7 0 143 139 143 147 0 8 -91 -1 -96 -9z"/>
<path d="M1272 844 c-12 -8 -22 -21 -22 -29 0 -12 6 -12 36 1 35 15 37 15 90
-22 58 -40 75 -40 49 0 -19 28 -13 46 16 46 10 0 19 5 19 10 0 17 -162 12
-188 -6z"/>
<path d="M1920 821 c0 -5 -3 -18 -7 -28 -6 -17 -5 -17 15 1 26 22 28 36 7 36
-8 0 -15 -4 -15 -9z"/>
<path d="M1988 729 c-43 -44 -78 -84 -78 -89 0 -4 -6 -11 -12 -14 -10 -5 -10
-7 0 -12 18 -9 14 -24 -5 -17 -12 5 -15 2 -10 -10 3 -8 1 -18 -6 -20 -7 -2 2
-4 18 -4 29 -1 75 35 75 58 0 5 8 9 17 7 12 -2 20 7 27 32 5 19 15 39 23 43
11 7 33 48 47 90 11 35 -21 14 -96 -64z"/>
<path d="M1844 760 c0 -11 5 -19 10 -17 14 5 16 37 2 37 -6 0 -12 -9 -12 -20z"/>
<path d="M1545 730 c-3 -5 -1 -10 4 -10 6 0 11 5 11 10 0 6 -2 10 -4 10 -3 0
-8 -4 -11 -10z"/>
<path d="M1578 713 c7 -3 16 -2 19 1 4 3 -2 6 -13 5 -11 0 -14 -3 -6 -6z"/>
<path d="M1251 64 c-1 -16 5 -39 13 -50 24 -32 28 -10 7 37 -19 43 -20 43 -20
13z"/>
</g>
</svg>
